{"title":"A Certain Scientific Railgun S [1-12]","uid":10635611,"size":1691824044,"categoryP":"video","categoryS":"tv_shows","magnet":"?xt=urn:btih:47f852eef2d599bce6c34ff0c17b15258777174e&amp;dn=A+Certain+Scientific+Railgun+S+%5B1-12%5D&amp;tr=udp%3A%2F%2Ftracker.openbittorrent.com%3A80&amp;tr=udp%3A%2F%2Fopen.demonii.com%3A1337&amp;tr=udp%3A%2F%2Ftracker.coppersurfer.tk%3A6969&amp;tr=udp%3A%2F%2Fexodus.desync.com%3A6969","seeders":1,"leechers":0,"uploader":"p7trick","files":-1,"time":1406383445,"description":"watchcartoononline\n\nA Certain Scientific Railgun S  eps 1-12 ENGLISH DUBBED\n_________________________________________________________\n\nFormat                                   : MPEG-4\nFormat profile                           : Base Media\nCodec ID                                 : isom\nFile size                                : 181 MiB\nDuration                                 : 23mn 57s\nOverall bit rate mode                    : Variable\nOverall bit rate                         : 1 054 Kbps\nEncoded date                             : UTC 2014-06-18 19:11:52\nTagged date                              : UTC 2014-06-18 19:11:52\n\nVideo\nID                                       : 1\nFormat                                   : AVC\nFormat/Info                              : Advanced Video Codec\nFormat profile                           : &lt;a class=&quot;__cf_email__&quot; href=&quot;/cdn-cgi/l/email-protection&quot; data-cfemail=&quot;99dbf8eafcf5f0f7fcd9d5aab7a9&quot;&gt;[email&amp;#160;protected]&lt;/a&gt;&lt;script cf-hash='f9e31' type=&quot;text/javascript&quot;&gt;\n/* &lt;![CDATA[ */!function(){try{var t=&quot;currentScript&quot;in document?document.currentScript:function(){for(var t=document.getElementsByTagName(&quot;script&quot;),e=t.length;e--;)if(t[e].getAttribute(&quot;cf-hash&quot;))return t[e]}();if(t&amp;&amp;t.previousSibling){var e,r,n,i,c=t.previousSibling,a=c.getAttribute(&quot;data-cfemail&quot;);if(a){for(e=&quot;&quot;,r=parseInt(a.substr(0,2),16),n=2;a.length-n;n+=2)i=parseInt(a.substr(n,2),16)^r,e+=String.fromCharCode(i);e=document.createTextNode(e),c.parentNode.replaceChild(e,c)}}}catch(u){}}();/* ]]&gt; */&lt;/script&gt;\nFormat settings, CABAC                   : No\nFormat settings, ReFrames                : 3 frames\nCodec ID                                 : avc1\nCodec ID/Info                            : Advanced Video Coding\nDuration                                 : 23mn 57s\nBit rate                                 : 958 Kbps\nMaximum bit rate                         : 6 379 Kbps\nWidth                                    : 854 pixels\nHeight                                   : 480 pixels\nDisplay aspect ratio                     : 16:9\nFrame rate mode                          : Constant\nFrame rate                               : 24.390 fps\nColor space                              : YUV\nChroma subsampling                       : 4:2:0\nBit depth                                : 8 bits\nScan type                                : Progressive\nBits/(Pixel*Frame)                       : 0.096\nStream size                              : 164 MiB (91%)\nWriting library                          : Zencoder Video Encoding System\nEncoded date                             : UTC 2014-06-18 19:07:24\nTagged date                              : UTC 2014-06-18 19:11:53\n\nAudio\nID                                       : 2\nFormat                                   : AAC\nFormat/Info                              : Advanced Audio Codec\nFormat profile                           : LC\nCodec ID                                 : 40\nDuration                                 : 23mn 57s\nBit rate mode                            : Variable\nBit rate                                 : 94.1 Kbps\nMaximum bit rate                         : 118 Kbps\nChannel(s)                               : 2 channels\nChannel positions                        : Front: L R\nSampling rate                            : 44.1 KHz\nCompression mode                         : Lossy\nStream size                              : 16.1 MiB (9%)\nLanguage                                 : English\n_________________________________________________________\n\nSummary:\nAcademy City is the home to circa 2.3 million citizens, about 80% of whom are students working to develop psychic powers and advanced technology. Students are ranked according to levels corresponding to their psychic powers: those without any are ranked at Level 0, and those with some manner of powers progress from Level 1, the weakest, to Level 5, the strongest. Only seven students in the whole city are ranked Level 5, and these seven are ranked among themselves as well.\nFor updates/requests:\nTwitter - @p7tricktorrent\nFacebook - /p7tricktorrent\nTPB - /user/p7trick/\nKAT - /user/iPirate7\n_________________________________________________________\n\nSEED!\n\nshare ratio:\n&quot;Scumbag = 0.1:1\nLeecher = 0.999:1\nMinimum = 1:1\nGood = 3:1\nGreat = 5:1\nAwesome = 10:1\n1337 = 100:1&quot;\t","torrent":{"xt":"urn:btih:47f852eef2d599bce6c34ff0c17b15258777174e","amp;dn":"A+Certain+Scientific+Railgun+S+%5B1-12%5D","amp;tr":["udp%3A%2F%2Ftracker.openbittorrent.com%3A80","udp%3A%2F%2Fopen.demonii.com%3A1337","udp%3A%2F%2Ftracker.coppersurfer.tk%3A6969","udp%3A%2F%2Fexodus.desync.com%3A6969"],"infoHash":"47f852eef2d599bce6c34ff0c17b15258777174e","infoHashBuffer":{"type":"Buffer","data":[71,248,82,238,242,213,153,188,230,195,79,240,193,123,21,37,135,119,23,78]},"announce":[],"urlList":[]}}